# xmcd
#
# Track frame offsets: 
#        150
#        16959
#        39959
#        63044
#        88507
#        105499
#        122264
#        137517
#        156714
#        170852
#
# Disc length: 2513 seconds
#
# Revision: 0
# Processed by: cddbd v1.5.2PL0 Copyright (c) Steve Scherf et al.
# Submitted via: ExactAudioCopyFreeDBPlugin 1.0
#
DISCID=7609cf0a
DTITLE=Windy City Rev Ups - Live in Chicago
DYEAR=1900
DGENRE=Blues
TTITLE0=Every Day I Have the Blues
TTITLE1=Cadillac Assembly Line
TTITLE2=The Sky Is Crying
TTITLE3=Cold Shot
TTITLE4=All Along the Watchtower
TTITLE5=Mammer Jammer
TTITLE6=Follow Your Heart
TTITLE7=Born Under a Bad Sign
TTITLE8=Swing Out Chicago
TTITLE9=I Should Have Known
EXTD=
EXTT0=
EXTT1=
EXTT2=
EXTT3=
EXTT4=
EXTT5=
EXTT6=
EXTT7=
EXTT8=
EXTT9=
PLAYORDER=
